<?xml version="1.0" encoding="UTF-8" standalone="no"?>
<svg width="44px" height="25px" viewBox="0 0 44 25" version="1.1" xmlns="http://www.w3.org/2000/svg" xmlns:xlink="http://www.w3.org/1999/xlink">
    <!-- Generator: Sketch 3.6.1 (26313) - http://www.bohemiancoding.com/sketch -->
    <title>eye</title>
    <desc>Created with Sketch.</desc>
    <defs></defs>
    <g id="Page-1" stroke="none" stroke-width="1" fill="none" fill-rule="evenodd">
        <g id="Desktop-HD" transform="translate(-3.000000, -13.000000)" fill="#1106FF">
            <g id="eye" transform="translate(3.000000, 13.000000)">
                <g id="Group">
                    <path d="M21.9078655,24.875515 C16.9807269,24.875515 11.6779172,22.8714868 6.57275614,19.079915 C2.75637465,16.2456172 0.400847924,13.4376067 0.302420133,13.3192619 C-0.100806711,12.8350581 -0.100806711,12.1163295 0.302420133,11.6320227 C0.400847924,11.513884 2.75627553,8.7056674 6.57275614,5.87136955 C11.6780164,2.08010701 16.980826,0.0758726712 21.9078655,0.0758726712 C26.8350041,0.0758726712 32.1379129,2.08000392 37.2429749,5.87136955 C41.0593564,8.7056674 43.4148831,11.5137809 43.5133109,11.6320227 C43.9165378,12.1162264 43.9165378,12.8349551 43.5133109,13.3192619 C43.4148831,13.4374006 41.0594555,16.2456172 37.2429749,19.079915 C32.1379129,22.8713838 26.8351033,24.875515 21.9078655,24.875515 L21.9078655,24.875515 Z M2.93776725,12.4757969 C3.89032624,13.485955 5.68809548,15.262262 8.06176146,17.0189824 C11.315925,19.4272181 16.3596307,22.2983183 21.9078655,22.2983183 C27.4561004,22.2983183 32.4999052,19.4272181 35.7539696,17.0189824 C38.1273382,15.2625713 39.9252066,13.486058 40.8779638,12.4757969 C39.9255039,11.4656389 38.1276356,9.68933184 35.7539696,7.93261148 C32.4999052,5.52427269 27.4561004,2.65327556 21.9078655,2.65327556 C16.3596307,2.65327556 11.315925,5.52427269 8.06176146,7.93261148 C5.68839284,9.68902258 3.89052449,11.4653296 2.93776725,12.4757969 L2.93776725,12.4757969 Z" id="Shape"></path>
                    <path d="M14.2259382,12.4757969 C14.2259382,8.07054304 17.6720012,4.48648712 21.9078655,4.48648712 C23.7707577,4.48648712 25.5678331,5.18892786 26.9678272,6.46453714 C27.4825658,6.93348386 27.5343073,7.74756875 27.083403,8.28290405 C26.6324986,8.81823935 25.8496359,8.87194813 25.3349963,8.40310451 C24.3869969,7.53933126 23.1697832,7.06368383 21.9077664,7.06368383 C19.038294,7.06368383 16.7038801,9.49160931 16.7038801,12.4757969 C16.7038801,15.4599845 19.038294,17.88791 21.9077664,17.88791 C24.777338,17.88791 27.1116527,15.4599845 27.1116527,12.4757969 C27.1116527,11.7641814 27.6664365,11.1871986 28.3506732,11.1871986 C29.0349099,11.1871986 29.5896937,11.7641814 29.5896937,12.4757969 C29.589892,16.8810508 26.1437298,20.4651067 21.9078655,20.4651067 C17.6720012,20.4651067 14.2259382,16.8810508 14.2259382,12.4757969 Z" id="Shape"></path>
                    <path d="M21.9078655,15.0529936 C20.5414737,15.0529936 19.4298244,13.8968632 19.4298244,12.4757969 C19.4298244,11.0547307 20.5414737,9.89860022 21.9078655,9.89860022 C23.2743565,9.89860022 24.3859066,11.0547307 24.3859066,12.4757969 C24.3859066,13.8968632 23.2743565,15.0529936 21.9078655,15.0529936 L21.9078655,15.0529936 Z" id="Shape"></path>
                </g>
            </g>
        </g>
    </g>
</svg>